<svg width="47" height="55" viewBox="0 0 47 55" fill="none" xmlns="http://www.w3.org/2000/svg">
  <path fill-rule="evenodd" clip-rule="evenodd"
    d="M23.0018 55C23.0018 55 46.0035 40 46.0035 22.5C46.0035 16.5326 43.5801 10.8097 39.2665 6.5901C34.9528 2.37053 29.1022 0 23.0018 0C16.9013 0 11.0507 2.37053 6.73706 6.5901C2.42339 10.8097 0 16.5326 0 22.5C0 40 23.0018 55 23.0018 55ZM30.669 22.5C30.669 26.6421 27.2363 30 23.0018 30C18.7673 30 15.3345 26.6421 15.3345 22.5C15.3345 18.3579 18.7673 15 23.0018 15C27.2363 15 30.669 18.3579 30.669 22.5Z" />
</svg>