<svg width="40" height="40" viewBox="0 0 40 40" fill="none" xmlns="http://www.w3.org/2000/svg">
<path fill-rule="evenodd" clip-rule="evenodd" d="M20 7.69231C20.8497 7.69231 21.5385 8.3811 21.5385 9.23077V12.3077C21.5385 13.1574 20.8497 13.8462 20 13.8462C19.1503 13.8462 18.4615 13.1574 18.4615 12.3077V9.23077C18.4615 8.3811 19.1503 7.69231 20 7.69231Z" fill="#363C45"/>
<path fill-rule="evenodd" clip-rule="evenodd" d="M20 26.1538C20.8497 26.1538 21.5385 26.8426 21.5385 27.6923V30.7692C21.5385 31.6189 20.8497 32.3077 20 32.3077C19.1503 32.3077 18.4615 31.6189 18.4615 30.7692V27.6923C18.4615 26.8426 19.1503 26.1538 20 26.1538Z" fill="#363C45"/>
<path fill-rule="evenodd" clip-rule="evenodd" d="M20 3.07692C10.6536 3.07692 3.07692 10.6536 3.07692 20C3.07692 29.3464 10.6536 36.9231 20 36.9231C29.3464 36.9231 36.9231 29.3464 36.9231 20C36.9231 10.6536 29.3464 3.07692 20 3.07692ZM0 20C0 8.9543 8.9543 0 20 0C31.0457 0 40 8.9543 40 20C40 31.0457 31.0457 40 20 40C8.9543 40 0 31.0457 0 20Z" fill="#363C45"/>
<path fill-rule="evenodd" clip-rule="evenodd" d="M17.6923 13.8462C17.0803 13.8462 16.4933 14.0893 16.0605 14.5221C15.6277 14.9548 15.3846 15.5418 15.3846 16.1538C15.3846 16.7659 15.6277 17.3529 16.0605 17.7856C16.4933 18.2184 17.0803 18.4615 17.6923 18.4615H22.3077C23.7358 18.4615 25.1054 19.0288 26.1152 20.0387C27.125 21.0485 27.6923 22.4181 27.6923 23.8462C27.6923 25.2742 27.125 26.6438 26.1152 27.6537C25.1054 28.6635 23.7358 29.2308 22.3077 29.2308H15.3846C14.5349 29.2308 13.8462 28.542 13.8462 27.6923C13.8462 26.8426 14.5349 26.1538 15.3846 26.1538H22.3077C22.9197 26.1538 23.5067 25.9107 23.9395 25.4779C24.3723 25.0452 24.6154 24.4582 24.6154 23.8462C24.6154 23.2341 24.3723 22.6471 23.9395 22.2144C23.5067 21.7816 22.9197 21.5385 22.3077 21.5385H17.6923C16.2642 21.5385 14.8946 20.9712 13.8848 19.9613C12.875 18.9515 12.3077 17.5819 12.3077 16.1538C12.3077 14.7258 12.875 13.3562 13.8848 12.3463C14.8946 11.3365 16.2642 10.7692 17.6923 10.7692H24.6154C25.4651 10.7692 26.1538 11.458 26.1538 12.3077C26.1538 13.1574 25.4651 13.8462 24.6154 13.8462H17.6923Z" fill="#363C45"/>
</svg>
