<svg width="40" height="39" viewBox="0 0 40 39" fill="none" xmlns="http://www.w3.org/2000/svg">
<path fill-rule="evenodd" clip-rule="evenodd" d="M34.0741 29.6297C32.4377 29.6297 31.1111 30.9563 31.1111 32.5927C31.1111 34.2291 32.4377 35.5556 34.0741 35.5556C35.7105 35.5556 37.037 34.2291 37.037 32.5927C37.037 30.9563 35.7105 29.6297 34.0741 29.6297ZM28.1481 32.5927C28.1481 29.3199 30.8013 26.6667 34.0741 26.6667C37.3469 26.6667 40 29.3199 40 32.5927C40 35.8655 37.3469 38.5186 34.0741 38.5186C30.8013 38.5186 28.1481 35.8655 28.1481 32.5927Z" fill="#363C45"/>
<path fill-rule="evenodd" clip-rule="evenodd" d="M8.8888 5.92593C8.8888 5.10772 9.55208 4.44444 10.3703 4.44444H28.1481C30.1127 4.44444 31.9968 5.22486 33.386 6.61403C34.7751 8.00319 35.5555 9.8873 35.5555 11.8519C35.5555 13.8164 34.7751 15.7006 33.386 17.0897C31.9968 18.4789 30.1127 19.2593 28.1481 19.2593H10.3703C8.79863 19.2593 7.29134 19.8836 6.18001 20.995C5.06868 22.1063 4.44434 23.6136 4.44434 25.1852C4.44434 26.7569 5.06868 28.2642 6.18001 29.3755C7.29134 30.4868 8.79863 31.1112 10.3703 31.1112H29.6296C30.4478 31.1112 31.1111 31.7745 31.1111 32.5927C31.1111 33.4109 30.4478 34.0742 29.6296 34.0742H10.3703C8.0128 34.0742 5.75187 33.1376 4.08488 31.4707C2.41788 29.8037 1.48137 27.5427 1.48137 25.1852C1.48137 22.8278 2.41788 20.5668 4.08488 18.8998C5.75187 17.2328 8.0128 16.2963 10.3703 16.2963H28.1481C29.3269 16.2963 30.4573 15.8281 31.2908 14.9946C32.1243 14.1611 32.5926 13.0306 32.5926 11.8519C32.5926 10.6731 32.1243 9.54266 31.2908 8.70916C30.4573 7.87567 29.3269 7.40741 28.1481 7.40741H10.3703C9.55208 7.40741 8.8888 6.74413 8.8888 5.92593Z" fill="#363C45"/>
<path fill-rule="evenodd" clip-rule="evenodd" d="M5.92594 2.96297C4.28954 2.96297 2.96297 4.28954 2.96297 5.92594C2.96297 7.56235 4.28954 8.88892 5.92594 8.88892C7.56235 8.88892 8.8888 7.56233 8.8888 5.92593C8.8888 4.28952 7.56235 2.96297 5.92594 2.96297ZM0 5.92594C0 2.65314 2.65314 0 5.92594 0C9.19875 0 11.8519 2.65314 11.8519 5.92594C11.8519 9.19875 9.19875 11.8519 5.92594 11.8519C2.65314 11.8519 0 9.19875 0 5.92594Z" fill="#363C45"/>
</svg>
