<svg width="40" height="35" viewBox="0 0 40 35" fill="none" xmlns="http://www.w3.org/2000/svg">
<path fill-rule="evenodd" clip-rule="evenodd" d="M2.96296 19.2593C2.96296 18.4411 3.62624 17.7778 4.44444 17.7778H14.8148C15.633 17.7778 16.2963 18.4411 16.2963 19.2593C16.2963 20.0775 15.633 20.7407 14.8148 20.7407H5.92593V32.5926C5.92593 33.4108 5.26264 34.0741 4.44444 34.0741C3.62624 34.0741 2.96296 33.4108 2.96296 32.5926V19.2593Z" fill="#363C45"/>
<path fill-rule="evenodd" clip-rule="evenodd" d="M0 32.5926C0 31.7744 0.663282 31.1111 1.48148 31.1111H38.5185C39.3367 31.1111 40 31.7744 40 32.5926C40 33.4108 39.3367 34.0741 38.5185 34.0741H1.48148C0.663282 34.0741 0 33.4108 0 32.5926Z" fill="#363C45"/>
<path fill-rule="evenodd" clip-rule="evenodd" d="M13.3333 10.3704C13.3333 9.55217 13.9966 8.88889 14.8148 8.88889H25.1852C26.0034 8.88889 26.6667 9.55217 26.6667 10.3704C26.6667 11.1886 26.0034 11.8519 25.1852 11.8519H16.2963V32.5926C16.2963 33.4108 15.633 34.0741 14.8148 34.0741C13.9966 34.0741 13.3333 33.4108 13.3333 32.5926V10.3704Z" fill="#363C45"/>
<path fill-rule="evenodd" clip-rule="evenodd" d="M23.7037 1.48148C23.7037 0.663282 24.367 0 25.1852 0H35.5556C36.3738 0 37.037 0.663282 37.037 1.48148V32.5926C37.037 33.4108 36.3738 34.0741 35.5556 34.0741H25.1852C24.367 34.0741 23.7037 33.4108 23.7037 32.5926V1.48148ZM26.6667 2.96296V31.1111H34.0741V2.96296H26.6667Z" fill="#363C45"/>
</svg>
