<svg width="40" height="39" viewBox="0 0 40 39" fill="none" xmlns="http://www.w3.org/2000/svg">
<path fill-rule="evenodd" clip-rule="evenodd" d="M19.1861 7.98998C20.0686 7.98998 20.7841 8.70543 20.7841 9.58798V19.176C20.7841 20.0585 20.0686 20.774 19.1861 20.774C18.3036 20.774 17.5881 20.0585 17.5881 19.176V9.58798C17.5881 8.70543 18.3036 7.98998 19.1861 7.98998Z" fill="#363C45"/>
<path fill-rule="evenodd" clip-rule="evenodd" d="M17.8022 18.3773C18.2432 17.6128 19.2205 17.3506 19.9849 17.7917L28.2945 22.5857C29.059 23.0267 29.3211 24.0039 28.8801 24.7684C28.4391 25.5328 27.4618 25.795 26.6974 25.354L18.3878 20.56C17.6234 20.119 17.3612 19.1417 17.8022 18.3773Z" fill="#363C45"/>
<path fill-rule="evenodd" clip-rule="evenodd" d="M38.4019 3.93491C39.2844 3.93491 39.9998 4.65036 39.9998 5.53291V13.5229C39.9998 14.4054 39.2844 15.1209 38.4019 15.1209H30.4119C29.5293 15.1209 28.8139 14.4054 28.8139 13.5229C28.8139 12.6403 29.5293 11.9249 30.4119 11.9249H36.8039V5.53291C36.8039 4.65036 37.5193 3.93491 38.4019 3.93491Z" fill="#363C45"/>
<path fill-rule="evenodd" clip-rule="evenodd" d="M22.2983 3.50401C19.1981 2.88636 15.9844 3.20205 13.0637 4.41116C10.143 5.62026 7.64649 7.66845 5.89001 10.2966C4.13353 12.9248 3.19599 16.0149 3.19599 19.176C3.19599 22.3371 4.13353 25.4271 5.89001 28.0553C7.64649 30.6835 10.143 32.7317 13.0637 33.9408C15.9844 35.1499 19.1981 35.4656 22.2983 34.8479C25.3985 34.2303 28.2458 32.707 30.4801 30.4709C31.1039 29.8466 32.1157 29.8462 32.74 30.47C33.3643 31.0938 33.3647 32.1056 32.7409 32.7299C30.0598 35.4133 26.643 37.2411 22.9228 37.9823C19.2026 38.7235 15.3461 38.3447 11.8413 36.8937C8.33639 35.4428 5.34059 32.985 3.23282 29.8312C1.12504 26.6774 0 22.9693 0 19.176C0 15.3827 1.12504 11.6746 3.23282 8.52075C5.34059 5.36694 8.33639 2.90912 11.8413 1.45819C15.3461 0.00727188 19.2026 -0.371562 22.9228 0.369615C26.6426 1.11071 30.059 2.93829 32.7401 5.62118L39.5303 12.3914C40.1553 13.0146 40.1568 14.0264 39.5336 14.6513C38.9105 15.2763 37.8987 15.2778 37.2737 14.6547L30.4801 7.88104C28.2458 5.6449 25.3985 4.12165 22.2983 3.50401Z" fill="#363C45"/>
</svg>
