<svg width="20" height="19" viewBox="0 0 20 19" fill="none" xmlns="http://www.w3.org/2000/svg">
<path fill-rule="evenodd" clip-rule="evenodd" d="M9.16667 9.16667C9.16667 8.70643 9.53976 8.33333 10 8.33333H19.1667C19.6269 8.33333 20 8.70643 20 9.16667C20 9.6269 19.6269 10 19.1667 10H10C9.53976 10 9.16667 9.6269 9.16667 9.16667Z" fill="#363C45"/>
<path fill-rule="evenodd" clip-rule="evenodd" d="M9.16667 2.5C9.16667 2.03976 9.53976 1.66667 10 1.66667H19.1667C19.6269 1.66667 20 2.03976 20 2.5C20 2.96024 19.6269 3.33333 19.1667 3.33333H10C9.53976 3.33333 9.16667 2.96024 9.16667 2.5Z" fill="#363C45"/>
<path fill-rule="evenodd" clip-rule="evenodd" d="M9.16667 15.8333C9.16667 15.3731 9.53976 15 10 15H19.1667C19.6269 15 20 15.3731 20 15.8333C20 16.2936 19.6269 16.6667 19.1667 16.6667H10C9.53976 16.6667 9.16667 16.2936 9.16667 15.8333Z" fill="#363C45"/>
<path fill-rule="evenodd" clip-rule="evenodd" d="M6.86261 0.268398C7.17462 0.606731 7.15328 1.13394 6.81494 1.44594L3.20036 4.77928C2.88089 5.07389 2.38865 5.07354 2.0696 4.77846L0.267517 3.1118C-0.0703676 2.7993 -0.0909504 2.27207 0.221544 1.93418C0.534038 1.5963 1.06127 1.57572 1.39916 1.88821L2.63624 3.03233L5.68506 0.220731C6.0234 -0.0912771 6.5506 -0.0699359 6.86261 0.268398Z" fill="#363C45"/>
<path fill-rule="evenodd" clip-rule="evenodd" d="M6.86261 6.93506C7.17462 7.2734 7.15328 7.8006 6.81494 8.11261L3.20036 11.4459C2.88089 11.7406 2.38865 11.7402 2.0696 11.4451L0.267517 9.77846C-0.0703676 9.46597 -0.0909504 8.93873 0.221544 8.60085C0.534038 8.26297 1.06127 8.24238 1.39916 8.55488L2.63624 9.699L5.68506 6.8874C6.0234 6.57539 6.5506 6.59673 6.86261 6.93506Z" fill="#363C45"/>
<path fill-rule="evenodd" clip-rule="evenodd" d="M6.86261 13.6017C7.17462 13.9401 7.15328 14.4673 6.81494 14.7793L3.20036 18.1126C2.88089 18.4072 2.38865 18.4069 2.0696 18.1118L0.267517 16.4451C-0.0703676 16.1326 -0.0909504 15.6054 0.221544 15.2675C0.534038 14.9296 1.06127 14.909 1.39916 15.2215L2.63624 16.3657L5.68506 13.5541C6.0234 13.2421 6.5506 13.2634 6.86261 13.6017Z" fill="#363C45"/>
</svg>
