<svg width="24" height="20" viewBox="0 0 24 20" fill="none" xmlns="http://www.w3.org/2000/svg">
<path fill-rule="evenodd" clip-rule="evenodd" d="M11.6606 0.000337958C13.1875 -0.0111841 14.7017 0.272019 16.116 0.833681C17.5325 1.3962 18.8208 2.22688 19.9067 3.27781C20.9925 4.32874 21.8543 5.5791 22.4425 6.95676C23.0306 8.33441 23.3334 9.81207 23.3333 11.3045V17.3913C23.3333 18.0832 23.0517 18.7467 22.5504 19.2359C22.0491 19.7252 21.3692 20 20.6603 20H18.8783C18.1693 20 17.4895 19.7252 16.9882 19.2359C16.4869 18.7467 16.2052 18.0832 16.2052 17.3913V13.0436C16.2052 12.3517 16.4869 11.6882 16.9882 11.199C17.4895 10.7098 18.1693 10.435 18.8783 10.435H21.5108C21.4206 9.47029 21.1806 8.52287 20.7975 7.62559C20.2999 6.45988 19.5706 5.40188 18.6518 4.51263C17.733 3.62338 16.6429 2.9205 15.4443 2.44452C14.2458 1.96855 12.9625 1.72891 11.6685 1.73943L11.6546 1.73944C10.3615 1.73024 9.07932 1.97085 7.88193 2.44742C6.68454 2.92399 5.59562 3.62708 4.67792 4.5162C3.76022 5.40531 3.03188 6.46286 2.53486 7.62792C2.15237 8.52451 1.91271 9.47113 1.82258 10.435H4.45505C5.16398 10.435 5.84388 10.7098 6.34517 11.199C6.84646 11.6882 7.12808 12.3517 7.12808 13.0436V17.3913C7.12808 18.0832 6.84646 18.7467 6.34517 19.2359C5.84388 19.7252 5.16398 20 4.45505 20H2.67303C1.9641 20 1.2842 19.7252 0.782913 19.2359C0.281622 18.7467 4.08281e-09 18.0832 4.08281e-09 17.3913V11.3045C-4.05707e-05 9.81309 0.302342 8.33638 0.889723 6.9595C1.4771 5.58261 2.33787 4.33278 3.42243 3.28201C4.50698 2.23124 5.79389 1.4003 7.20898 0.837089C8.62193 0.274728 10.1348 -0.00962563 11.6606 0.000337958ZM1.78202 12.1741V17.3913C1.78202 17.622 1.87589 17.8431 2.04299 18.0062C2.21009 18.1693 2.43672 18.2609 2.67303 18.2609H4.45505C4.69136 18.2609 4.91799 18.1693 5.08509 18.0062C5.25219 17.8431 5.34606 17.622 5.34606 17.3913V13.0436C5.34606 12.813 5.25219 12.5918 5.08509 12.4287C4.91799 12.2657 4.69136 12.1741 4.45505 12.1741H1.78202ZM21.5513 12.1741H18.8783C18.642 12.1741 18.4153 12.2657 18.2482 12.4287C18.0811 12.5918 17.9873 12.813 17.9873 13.0436V17.3913C17.9873 17.622 18.0811 17.8431 18.2482 18.0062C18.4153 18.1693 18.642 18.2609 18.8783 18.2609H20.6603C20.8966 18.2609 21.1232 18.1693 21.2903 18.0062C21.4574 17.8431 21.5513 17.622 21.5513 17.3913V12.1741Z" fill="#363C45"/>
</svg>
