<svg width="30" height="30" viewBox="0 0 30 30" fill="none" xmlns="http://www.w3.org/2000/svg">
<path d="M15 0C6.72692 0 0 6.72692 0 15C0 23.2731 6.72692 30 15 30C23.2731 30 30 23.2731 30 15C30 6.72692 23.2731 0 15 0ZM16.1538 27.6346V18.4615H19.6154C20.25 18.4615 20.7692 17.9423 20.7692 17.3077C20.7692 16.6731 20.25 16.1538 19.6154 16.1538H16.1538V12.6692C16.1538 12.0577 16.3962 11.4808 16.8346 11.0538C17.2615 10.6269 17.8385 10.3846 18.45 10.3846H20.7692C21.4038 10.3846 21.9231 9.86538 21.9231 9.23077C21.9231 8.59615 21.4038 8.07692 20.7692 8.07692H18.45C17.2269 8.07692 16.0731 8.55 15.2077 9.41538C14.3308 10.2808 13.8462 11.4346 13.8462 12.6577V16.1538H10.3846C9.75 16.1538 9.23077 16.6731 9.23077 17.3077C9.23077 17.9423 9.75 18.4615 10.3846 18.4615H13.8462V27.6346C7.38462 27.0462 2.30769 21.6 2.30769 15C2.30769 7.99615 7.99615 2.30769 15 2.30769C22.0038 2.30769 27.6923 7.99615 27.6923 15C27.6923 21.6115 22.6154 27.0577 16.1538 27.6346Z" fill="#363C45"/>
</svg>
