<svg width="35" height="30" viewBox="0 0 35 30" fill="none" xmlns="http://www.w3.org/2000/svg">
<path d="M7.90752 30H7.89659C5.6279 30 3.75764 29.6406 2.33893 28.9313C1.19364 28.3579 0.724907 27.7438 0.607722 27.5688C0.396791 27.2516 0.340542 26.8548 0.457727 26.4923C0.574911 26.1298 0.851466 25.8392 1.20771 25.7064C1.24833 25.6907 4.93417 24.2752 7.31691 21.5799C6.29663 20.8596 4.81698 19.6253 3.45296 17.7738C1.31239 14.8676 -0.953172 9.8193 0.417103 2.27732C0.499913 1.81952 0.831154 1.4461 1.27489 1.30704C1.71863 1.16798 2.20299 1.28829 2.53111 1.6164C2.58579 1.67109 7.78721 6.79907 14.1464 8.45528V7.50062C14.1464 5.49911 14.9464 3.60697 16.3979 2.17576C17.8463 0.746115 19.7416 -0.0288643 21.7415 0.000822372C24.4024 0.0320715 26.8351 1.47891 28.1476 3.75072H32.8959C33.4021 3.75072 33.8568 4.0554 34.0506 4.52257C34.2443 4.98975 34.1365 5.52723 33.7802 5.88504L29.0616 10.6037C28.6101 15.8285 26.2648 20.6628 22.429 24.258C18.4791 27.961 13.3214 30 7.90752 30ZM4.26856 27.0188C5.07791 27.2813 6.24663 27.5001 7.89659 27.5001H7.90596C17.7588 27.5001 25.9695 19.8003 26.6023 9.96774C26.6211 9.66462 26.7508 9.37869 26.9664 9.16463L29.8788 6.25221H27.3804C26.8836 6.25221 26.4336 5.95847 26.2351 5.50223C25.4492 3.70228 23.6743 2.52419 21.7103 2.50232C21.6884 2.50232 21.665 2.50232 21.6431 2.50232C20.3416 2.50232 19.1057 3.01793 18.1541 3.95696C17.1823 4.91475 16.6479 6.17409 16.6479 7.50218V10.0021C16.6479 10.3693 16.4854 10.7177 16.2057 10.9552C15.9261 11.1927 15.5542 11.2943 15.1917 11.2349C9.76372 10.3302 5.03729 7.01782 2.57173 4.99287C2.19362 9.374 3.1639 13.1661 5.46696 16.291C7.45285 18.9862 9.68404 20.1221 9.70747 20.1331C10.0278 20.294 10.2653 20.5831 10.3559 20.9299C10.4465 21.2768 10.3871 21.6455 10.1871 21.944C8.57469 24.3627 6.06851 26.0423 4.26856 27.0188Z" fill="#363C45"/>
</svg>
