<svg width="30" height="30" viewBox="0 0 30 30" fill="none" xmlns="http://www.w3.org/2000/svg">
<path fill-rule="evenodd" clip-rule="evenodd" d="M15 10.2C12.349 10.2 10.2 12.349 10.2 15C10.2 17.651 12.349 19.8 15 19.8C17.651 19.8 19.8 17.651 19.8 15C19.8 12.349 17.651 10.2 15 10.2ZM7.8 15C7.8 11.0236 11.0236 7.8 15 7.8C18.9764 7.8 22.2 11.0236 22.2 15C22.2 18.9764 18.9764 22.2 15 22.2C11.0236 22.2 7.8 18.9764 7.8 15Z" fill="#363C45"/>
<path fill-rule="evenodd" clip-rule="evenodd" d="M8.4 2.4C5.08629 2.4 2.4 5.08629 2.4 8.4V21.6C2.4 24.9137 5.08629 27.6 8.4 27.6H21.6C24.9137 27.6 27.6 24.9137 27.6 21.6V8.4C27.6 5.08629 24.9137 2.4 21.6 2.4H8.4ZM0 8.4C0 3.76081 3.76081 0 8.4 0H21.6C26.2392 0 30 3.76081 30 8.4V21.6C30 26.2392 26.2392 30 21.6 30H8.4C3.76081 30 0 26.2392 0 21.6V8.4Z" fill="#363C45"/>
<path d="M22.8 9C23.7941 9 24.6 8.19411 24.6 7.2C24.6 6.20589 23.7941 5.4 22.8 5.4C21.8059 5.4 21 6.20589 21 7.2C21 8.19411 21.8059 9 22.8 9Z" fill="#363C45"/>
</svg>
