<svg width="120" height="28" viewBox="0 0 120 28" fill="none" xmlns="http://www.w3.org/2000/svg">
<path d="M26.9517 12.4004C26.3721 5.69897 20.8658 0.357173 14.2004 0.0172735C6.424 -0.371257 0 5.84457 0 13.6144C0 20.4615 5.0716 26.1432 11.6404 27.0659C11.9302 27.1144 12.1717 26.8231 12.0268 26.5802C11.8336 26.0946 11.5921 25.3662 11.5438 24.395C11.4955 23.6666 11.5921 22.9867 11.9302 22.1612C12.22 21.3356 12.8479 20.6072 13.5241 20.1702C14.2004 19.6846 14.4902 19.4903 15.4562 19.199C16.3739 18.9076 17.0501 18.422 17.678 17.7421C17.9678 17.4022 18.2576 17.0623 18.4991 16.6738C18.7406 16.2853 18.9338 15.8968 19.0787 15.4597C19.3685 14.6342 19.4168 13.7115 19.2719 12.7889C19.1753 11.9148 18.8372 11.0407 18.3542 10.3123C17.8712 9.58377 17.195 8.95247 16.4222 8.51547C15.6494 8.07837 14.8283 7.78707 13.9106 7.73847C13.0411 7.68997 12.1234 7.83557 11.3506 8.12697C9.7567 8.80687 8.4043 10.2151 7.9213 11.9148C7.6798 12.7403 7.5832 13.7115 7.7764 14.6342C7.9213 15.5083 8.2594 16.3824 8.7907 17.0137C9.1771 17.5479 9.3703 18.422 8.8873 19.0533C8.1145 20.1216 6.5689 20.0731 5.8927 19.0533C5.0716 17.8878 4.4919 16.5281 4.2987 15.1198C4.0572 13.7115 4.1538 12.2547 4.5886 10.895C5.4097 8.12697 7.5349 5.89317 10.1431 4.82487C11.4955 4.33917 12.9928 4.09637 14.3936 4.24207C15.7943 4.33917 17.1467 4.82487 18.3542 5.55327C19.5617 6.28167 20.576 7.25287 21.3488 8.46687C22.1216 9.63237 22.653 10.9921 22.7979 12.4004C22.9911 13.8087 22.8462 15.2169 22.4114 16.5766C22.1699 17.2565 21.7352 18.2763 21.3005 18.859C19.8032 20.8986 18.2576 21.8698 16.6154 22.4525C15.3596 22.8896 14.8766 23.7151 15.263 24.7349C15.9392 26.386 18.2093 26.2889 18.8372 25.9975C24.0054 23.9094 27.483 18.4705 26.9517 12.4004ZM13.5241 11.2349C14.8283 11.2349 15.8909 12.3033 15.8909 13.6144C15.8909 14.9256 14.8283 15.9939 13.5241 15.9939C12.22 15.9939 11.1574 14.9256 11.1574 13.6144C11.1574 12.3033 12.22 11.2349 13.5241 11.2349Z" fill="#B0C9F0"/>
<path d="M34.3493 3.91007H37.1107C37.4983 3.91007 37.8374 4.24917 37.8374 4.63677V18.25C37.8374 19.3158 38.2734 19.8487 39.1939 19.8487C39.3877 19.8487 39.6299 19.8003 39.8721 19.7518L40.0175 19.7034C40.3566 19.6065 40.6472 19.8487 40.6957 20.1394L41.0348 22.1257C41.0833 22.4163 40.8895 22.7555 40.5988 22.8524C40.2112 22.9977 39.7752 23.143 39.2908 23.2399C38.6125 23.3853 37.9827 23.4337 37.3529 23.4337C36.1418 23.4337 35.2213 23.0946 34.5431 22.4648C33.9133 21.835 33.5742 20.9145 33.5742 19.7034V4.63677C33.6226 4.24917 33.9617 3.91007 34.3493 3.91007Z" fill="white"/>
<path d="M49.4161 23.4337C48.2534 23.4337 47.1876 23.2399 46.2672 22.8523C45.3467 22.4648 44.5716 21.9319 43.9418 21.3021C43.312 20.6238 42.8275 19.8971 42.4884 19.0251C42.1493 18.1531 42.0039 17.2326 42.0039 16.3122C42.0039 15.3432 42.1493 14.4712 42.4884 13.5992C42.8275 12.7272 43.312 11.9521 43.9418 11.3223C44.5716 10.644 45.3467 10.1111 46.2672 9.72347C47.1876 9.33597 48.2534 9.14217 49.4161 9.14217C50.5788 9.14217 51.6446 9.33597 52.5651 9.72347C53.4856 10.1111 54.2607 10.644 54.8905 11.3223C55.5203 12.0005 56.0048 12.7272 56.3439 13.5992C56.683 14.4712 56.8283 15.3917 56.8283 16.3122C56.8283 17.2811 56.683 18.1531 56.3439 19.0251C56.0048 19.8971 55.5203 20.6723 54.8905 21.3021C54.2607 21.9803 53.4856 22.4648 52.5651 22.8523C51.6446 23.2399 50.5788 23.4337 49.4161 23.4337ZM46.3156 16.2637C46.3156 17.378 46.6063 18.25 47.1876 18.8798C47.769 19.558 48.4957 19.8487 49.4161 19.8487C49.8521 19.8487 50.2397 19.7518 50.6273 19.6065C51.0148 19.4127 51.3055 19.1705 51.5962 18.8798C51.8869 18.5407 52.0807 18.2015 52.226 17.7171C52.3713 17.2811 52.4682 16.7966 52.4682 16.2637C52.4682 15.1495 52.1775 14.2774 51.5962 13.6477C51.0148 12.9694 50.2882 12.6787 49.4161 12.6787C48.9801 12.6787 48.5441 12.7756 48.205 12.921C47.8174 13.1147 47.4783 13.357 47.2361 13.6477C46.9454 13.9868 46.7516 14.3259 46.6063 14.8103C46.4125 15.2464 46.3156 15.7308 46.3156 16.2637Z" fill="white"/>
<path d="M67.9227 22.7555L64.5799 17.6202L63.0781 19.1705V22.4648C63.0781 22.8524 62.739 23.1915 62.3514 23.1915H59.59C59.2024 23.1915 58.8633 22.8524 58.8633 22.4648V4.63677C58.8633 4.24917 59.2024 3.91007 59.59 3.91007H62.3514C62.739 3.91007 63.0781 4.24917 63.0781 4.63677V14.1321C63.0781 14.4228 63.4657 14.5681 63.6594 14.3259L67.5351 9.57817C67.6804 9.38437 67.8742 9.28757 68.1164 9.28757H71.0716C71.5561 9.28757 71.7983 9.82047 71.5076 10.208L67.2929 15.2464L72.089 22.271C72.3312 22.6586 72.089 23.143 71.6045 23.143H68.6978C68.4071 23.1915 68.1164 23.0461 67.9227 22.7555Z" fill="white"/>
<path d="M74.2656 22.4648V10.0627C74.2656 9.67507 74.6047 9.33597 74.9923 9.33597H77.7537C78.1412 9.33597 78.4803 9.67507 78.4803 10.0627V22.4648C78.4803 22.8523 78.1412 23.1915 77.7537 23.1915H74.9923C74.6047 23.1915 74.2656 22.8523 74.2656 22.4648Z" fill="white"/>
<path d="M102.562 23.1915H99.8C99.413 23.1915 99.073 22.8523 99.073 22.4648V15.3917C99.073 14.4712 98.928 13.793 98.589 13.4054C98.25 12.9694 97.814 12.7756 97.281 12.7756C96.99 12.7756 96.7 12.8241 96.409 12.9694C96.118 13.1147 95.828 13.2601 95.585 13.5023C95.343 13.7445 95.101 13.9868 94.907 14.2774C94.713 14.5681 94.52 14.9072 94.423 15.2464V22.4648C94.423 22.8523 94.084 23.1915 93.696 23.1915H90.9344C90.5468 23.1915 90.2077 22.8523 90.2077 22.4648V15.3917C90.2077 14.4712 90.0624 13.793 89.7233 13.4054C89.3841 12.9694 88.9481 12.7756 88.4152 12.7756C87.8339 12.7756 87.301 13.0179 86.7681 13.4539C86.2352 13.8899 85.8476 14.5197 85.6054 15.2464V22.4648C85.6054 22.8523 85.2662 23.1915 84.8787 23.1915H82.1173C81.7297 23.1915 81.3906 22.8523 81.3906 22.4648V10.0627C81.3906 9.67507 81.7297 9.33597 82.1173 9.33597H84.4427C84.8302 9.33597 85.1694 9.67507 85.1694 10.0627V11.6614C85.7023 10.8378 86.3805 10.1596 87.2525 9.72347C88.1245 9.28747 89.1419 9.04527 90.3046 9.04527C90.8859 9.04527 91.3704 9.09377 91.8064 9.23907C92.243 9.38437 92.63 9.57817 92.921 9.82037C93.26 10.0627 93.502 10.3533 93.696 10.6925C93.89 11.0316 94.035 11.3707 94.132 11.7583C94.665 10.8862 95.343 10.208 96.215 9.77197C97.087 9.28747 98.056 9.09377 99.17 9.09377C100.042 9.09377 100.769 9.23907 101.302 9.57817C101.835 9.91727 102.271 10.3049 102.562 10.8378C102.852 11.3707 103.046 11.9036 103.143 12.5334C103.24 13.1632 103.288 13.7445 103.288 14.3259V22.4648C103.288 22.8523 102.998 23.1915 102.562 23.1915Z" fill="white"/>
<path d="M112.588 23.4337C111.425 23.4337 110.359 23.2399 109.439 22.8523C108.518 22.4648 107.743 21.9319 107.113 21.3021C106.484 20.6238 105.999 19.8971 105.66 19.0251C105.321 18.1531 105.176 17.2326 105.176 16.3122C105.176 15.3432 105.321 14.4712 105.66 13.5992C105.999 12.7272 106.484 11.9521 107.113 11.3223C107.743 10.644 108.518 10.1111 109.439 9.72347C110.359 9.33597 111.425 9.14217 112.588 9.14217C113.751 9.14217 114.816 9.33597 115.737 9.72347C116.657 10.1111 117.432 10.644 118.062 11.3223C118.692 12.0005 119.176 12.7272 119.516 13.5992C119.855 14.4712 120 15.3917 120 16.3122C120 17.2811 119.855 18.1531 119.516 19.0251C119.176 19.8971 118.692 20.6723 118.062 21.3021C117.432 21.9803 116.657 22.4648 115.737 22.8523C114.816 23.2399 113.751 23.4337 112.588 23.4337ZM109.487 16.2637C109.487 17.378 109.778 18.25 110.359 18.8798C110.941 19.558 111.667 19.8487 112.588 19.8487C113.024 19.8487 113.411 19.7518 113.799 19.6065C114.187 19.4127 114.477 19.1705 114.768 18.8798C115.059 18.5407 115.252 18.2015 115.398 17.7171C115.543 17.2811 115.64 16.7966 115.64 16.2637C115.64 15.1495 115.349 14.2774 114.768 13.6477C114.187 12.9694 113.46 12.6787 112.588 12.6787C112.152 12.6787 111.716 12.7756 111.377 12.921C110.989 13.1147 110.65 13.357 110.408 13.6477C110.117 13.9868 109.923 14.3259 109.778 14.8103C109.584 15.2464 109.487 15.7308 109.487 16.2637Z" fill="white"/>
<path d="M76.4004 7.44657C77.7649 7.44657 78.8711 6.34037 78.8711 4.97587C78.8711 3.61127 77.7649 2.50507 76.4004 2.50507C75.0358 2.50507 73.9297 3.61127 73.9297 4.97587C73.9297 6.34037 75.0358 7.44657 76.4004 7.44657Z" fill="#B0C9F0"/>
</svg>
